<svg viewBox="0 0 485 167"
  xmlns="http://www.w3.org/2000/svg" fill="black">
  <path d="M60.94 165.65v-15.59h-2.27c-.66 5.01-2.91 9.14-6.73 12.4s-9 4.89-15.52 4.89-12.02-1.63-17.36-4.89-9.66-8.6-12.97-16.02c-3.31-7.42-4.96-17.36-4.96-29.83s1.63-22.49 4.89-30.05C9.28 79 13.84 73.52 19.7 70.12c5.86-3.4 12.76-5.1 20.69-5.1 8.79 0 16.16 1.91 22.11 5.74 5.95 3.83 10.53 9.52 13.75 17.08l-16.58 9.5c-1.32-4.44-3.54-7.96-6.66-10.56-3.12-2.6-7.37-3.9-12.76-3.9-3.5 0-6.57.76-9.21 2.27-2.65 1.51-4.7 3.78-6.17 6.8-1.47 3.02-2.2 6.8-2.2 11.34v25.79c0 4.44.73 8.17 2.2 11.2 1.46 3.03 3.57 5.29 6.31 6.8 2.74 1.51 5.95 2.27 9.64 2.27 3.4 0 6.45-.59 9.14-1.77 2.69-1.18 4.79-2.91 6.31-5.17 1.51-2.27 2.27-5.1 2.27-8.5v-5.81h-16.3v-17.01h35.72v54.57H60.95ZM92.23 66.73h20.27v64.2c0 4.35.47 7.87 1.42 10.56.94 2.69 2.55 4.68 4.82 5.95s5.29 1.91 9.07 1.91 6.92-.64 9.14-1.91c2.22-1.28 3.8-3.26 4.75-5.95.94-2.69 1.42-6.21 1.42-10.56v-64.2h20.27v61.51c0 9.26-1.13 16.77-3.4 22.54-2.27 5.76-6 9.97-11.2 12.61-5.2 2.64-12.19 3.97-20.98 3.97s-15.78-1.32-20.98-3.97c-5.2-2.64-8.93-6.85-11.2-12.61-2.27-5.76-3.4-13.27-3.4-22.54V66.73ZM218.71 165.65H175.2v-16.01h11.62v-66.9H175.2V66.73h43.51v16.01h-11.62v66.9h11.62v16.01ZM231.9 165.65V66.72h34.72c8.03 0 14.93 1.65 20.69 4.96 5.76 3.31 10.2 8.6 13.32 15.87 3.12 7.28 4.68 16.82 4.68 28.63s-1.56 21.35-4.68 28.63c-3.12 7.28-7.56 12.57-13.32 15.87-5.76 3.31-12.66 4.96-20.69 4.96H231.9Zm20.27-17.71h14.46c3.78 0 6.92-.71 9.42-2.13s4.42-3.61 5.74-6.59c1.32-2.98 1.98-6.68 1.98-11.13v-23.81c0-4.54-.66-8.27-1.98-11.2-1.32-2.93-3.24-5.1-5.74-6.52s-5.65-2.13-9.42-2.13h-14.46v63.49ZM379.59 165.65h-61.23V66.72h61.23v17.72h-40.96v22.39h34.72v17.58h-34.72v23.53h40.96v17.72ZM58.73 52.75c-3.84 0-7.25-.67-10.21-2.01-2.97-1.34-5.54-3.34-7.73-6.02l6.71-6.71c1.41 1.8 3.1 3.19 5.07 4.16 1.97.97 4.1 1.46 6.38 1.46 2.43 0 4.25-.54 5.47-1.61 1.21-1.07 1.82-2.67 1.82-4.81 0-1.17-.19-2.16-.58-2.99a4.79 4.79 0 0 0-1.75-2.01c-.78-.51-1.8-.89-3.06-1.13l-4.67-.88c-3.11-.58-5.68-1.51-7.7-2.77-2.02-1.26-3.53-2.91-4.52-4.92-1-2.02-1.5-4.44-1.5-7.26 0-3.31.66-6.08 1.97-8.32s3.25-3.94 5.8-5.11C52.78.65 55.93.07 59.68.07s6.82.57 9.52 1.71c2.7 1.14 5 2.91 6.89 5.29l-6.71 6.71c-1.26-1.56-2.69-2.71-4.27-3.46-1.58-.75-3.44-1.13-5.58-1.13-2.29 0-3.96.44-5.03 1.31-1.07.88-1.6 2.29-1.6 4.23 0 1.12.18 2.05.55 2.81.36.75.92 1.38 1.68 1.86.75.49 1.71.85 2.88 1.09l4.67.95c3.36.68 6.05 1.61 8.1 2.77 2.04 1.17 3.54 2.71 4.49 4.63s1.42 4.32 1.42 7.18c0 3.6-.69 6.64-2.08 9.12-1.39 2.48-3.4 4.37-6.05 5.65-2.65 1.29-5.92 1.93-9.81 1.93ZM115.39 10.08h-12.18v41.8H92.78v-41.8H80.6V.97h34.79v9.12ZM154.86 51.88h-10.29l-3.14-12.47h-15.61l-3.14 12.47h-9.99L127.14.97h13.28l14.44 50.91Zm-15.97-20.86-3.14-11.74-1.6-8.83h-1.17l-1.6 8.83-2.99 11.74h10.5ZM170.35 32.62v19.26h-10.43V.97h22.03c3.06 0 5.63.66 7.7 1.97 2.07 1.31 3.63 3.15 4.7 5.51 1.07 2.36 1.61 5.14 1.61 8.35 0 3.7-.72 6.84-2.15 9.45-1.43 2.6-3.51 4.41-6.24 5.43l8.9 20.21h-11.31l-7.88-19.26h-6.93Zm0-8.68h10.28c.92 0 1.73-.16 2.41-.47.68-.32 1.2-.81 1.57-1.5.37-.68.55-1.6.55-2.77v-4.38c0-1.17-.18-2.1-.55-2.81-.36-.7-.89-1.2-1.57-1.5-.68-.29-1.48-.44-2.41-.44h-10.28v13.86ZM234.91 10.08h-12.18v41.8H212.3v-41.8h-12.18V.97h34.79v9.12ZM271.65 51.88h-31.51V.97h31.51v9.12h-21.08v11.53h17.87v9.04h-17.87v12.11h21.08v9.12ZM289.31 32.62v19.26h-10.43V.97h22.03c3.06 0 5.63.66 7.7 1.97 2.07 1.31 3.63 3.15 4.7 5.51 1.07 2.36 1.61 5.14 1.61 8.35 0 3.7-.72 6.84-2.15 9.45-1.43 2.6-3.51 4.41-6.24 5.43l8.9 20.21h-11.31l-7.88-19.26h-6.93Zm0-8.68h10.28c.92 0 1.73-.16 2.41-.47.68-.32 1.2-.81 1.57-1.5.37-.68.55-1.6.55-2.77v-4.38c0-1.17-.18-2.1-.55-2.81-.36-.7-.89-1.2-1.57-1.5-.68-.29-1.48-.44-2.41-.44h-10.28v13.86ZM423.31 98.91c-1.95-1.12-4.28-1.68-6.99-1.68h-11.73v33.42h11.73c2.71 0 5.04-.56 6.99-1.68 1.95-1.12 3.45-2.9 4.5-5.36 1.05-2.46 1.58-5.68 1.58-9.67s-.53-7.21-1.58-9.67-2.55-4.24-4.5-5.36Zm-1.2 19.05c0 1.5-.22 2.75-.67 3.76-.45 1.01-1.09 1.75-1.94 2.23s-1.91.72-3.18.72h-4.88v-21.45h4.88c1.28 0 2.34.24 3.18.72.85.48 1.49 1.21 1.94 2.2s.67 2.25.67 3.78v8.04ZM434.14 130.65h20.68v-5.98h-13.83v-7.95h11.73v-5.94h-11.73v-7.56h13.83v-5.99h-20.68v33.42zM478.44 97.23l-5.27 20.3-1.05 6.9h-.77l-1.05-6.9-5.36-20.3h-7.09l9.82 33.42h8.04l9.62-33.42h-6.89zM389.83 109.96c-2.73 0-4.93 2.2-4.93 4.93s2.2 4.93 4.93 4.93 4.93-2.2 4.93-4.93-2.11-4.93-4.93-4.93Z" />
</svg>